<?xml version="1.0" encoding="UTF-8"?> <!-- Generator: Adobe Illustrator 24.0.1, SVG Export Plug-In . SVG Version: 6.00 Build 0) --> <svg xmlns="http://www.w3.org/2000/svg" xmlns:xlink="http://www.w3.org/1999/xlink" version="1.1" id="Calque_1" x="0px" y="0px" viewBox="0 0 192.57 112.69" style="enable-background:new 0 0 192.57 112.69;" xml:space="preserve"> <style type="text/css"> .st0{fill:none;} .st1{fill:#FF385C;} </style> <g> <rect x="0.34" y="0.14" class="st0" width="191.88" height="112.56"></rect> <g> <path class="st1" d="M65.42,65.89c-0.21-0.57-0.44-1.13-0.67-1.65c-0.36-0.8-0.72-1.57-1.06-2.35l-0.03-0.05 c-3.15-6.84-6.53-13.77-10.06-20.61l-0.15-0.28c-0.36-0.7-0.72-1.42-1.11-2.11c-0.44-0.83-0.93-1.7-1.62-2.53 c-1.52-1.75-3.61-2.73-5.86-2.73c-2.27,0-4.33,0.98-5.83,2.73c-0.7,0.83-1.19,1.7-1.63,2.53c-0.39,0.72-0.75,1.44-1.11,2.14 l-0.13,0.26c-3.51,6.83-6.91,13.77-10.06,20.61l-0.1,0.1c-0.34,0.75-0.7,1.52-1.06,2.32c-0.23,0.52-0.46,1.06-0.67,1.65 c-0.59,1.68-0.77,3.28-0.54,4.9c0.49,3.4,2.76,6.29,5.93,7.58c1.19,0.49,2.42,0.72,3.71,0.72c0.39,0,0.8-0.03,1.19-0.08 c1.52-0.18,3.07-0.7,4.57-1.55c1.86-1.03,3.66-2.55,5.65-4.75c1.99,2.17,3.82,3.69,5.65,4.75c1.52,0.85,3.04,1.37,4.57,1.55 c0.39,0.05,0.8,0.08,1.19,0.08c1.29,0,2.55-0.23,3.71-0.72c3.17-1.29,5.44-4.2,5.93-7.58C66.19,69.17,66.01,67.57,65.42,65.89z M44.86,68.26c-2.48-3.12-4.05-6.04-4.59-8.49c-0.23-1.03-0.28-1.96-0.15-2.79c0.1-0.72,0.36-1.37,0.72-1.91 c0.85-1.24,2.35-1.99,4.02-1.99c1.68,0,3.17,0.75,4.02,1.99c0.39,0.54,0.62,1.19,0.72,1.91c0.13,0.83,0.08,1.78-0.15,2.79 C48.91,62.23,47.31,65.14,44.86,68.26z M63.07,70.38c-0.34,2.37-1.93,4.41-4.15,5.31c-1.08,0.44-2.27,0.59-3.48,0.46 c-1.16-0.13-2.3-0.52-3.48-1.19c-1.65-0.93-3.3-2.35-5.18-4.44c2.99-3.69,4.85-7.07,5.52-10.09c0.31-1.39,0.39-2.68,0.21-3.89 c-0.18-1.16-0.59-2.19-1.21-3.12c-1.39-2.04-3.79-3.25-6.42-3.25c-2.63,0-5.03,1.21-6.42,3.25c-0.62,0.9-1.03,1.96-1.21,3.12 c-0.18,1.19-0.13,2.5,0.21,3.89c0.7,3.02,2.55,6.42,5.52,10.11c-1.88,2.09-3.53,3.51-5.18,4.44c-1.19,0.67-2.32,1.06-3.48,1.19 c-1.21,0.13-2.4-0.03-3.48-0.46c-2.22-0.9-3.82-2.94-4.15-5.31c-0.15-1.16-0.03-2.27,0.41-3.53c0.15-0.46,0.36-0.9,0.59-1.44 c0.34-0.75,0.7-1.52,1.03-2.27l0.05-0.1c3.1-6.78,6.47-13.7,9.96-20.48l0.13-0.26c0.36-0.7,0.72-1.42,1.11-2.09 c0.39-0.72,0.77-1.42,1.29-2.01c0.95-1.11,2.22-1.7,3.64-1.7c1.42,0,2.68,0.59,3.64,1.7c0.52,0.59,0.9,1.29,1.29,2.01 c0.36,0.7,0.72,1.39,1.08,2.09l0.15,0.28c3.51,6.78,6.86,13.7,10.01,20.48l0.03,0.05c0.36,0.75,0.7,1.55,1.06,2.3 c0.23,0.54,0.44,0.98,0.59,1.44C63.1,68.11,63.23,69.22,63.07,70.38z"></path> <path class="st1" d="M83.01,67.96c-1.13,0-2.17-0.23-3.12-0.67c-0.95-0.46-1.78-1.08-2.5-1.91c-0.72-0.83-1.26-1.75-1.68-2.84 c-0.41-1.08-0.59-2.27-0.59-3.53c0-1.29,0.21-2.5,0.62-3.61s0.98-2.06,1.73-2.91c0.75-0.83,1.6-1.5,2.61-1.96 c1.01-0.46,2.06-0.7,3.22-0.7c1.13,0,2.14,0.23,3.04,0.72c0.9,0.46,1.65,1.16,2.24,2.01l0.13-2.24h4.2v17.15h-4.2l-0.13-2.5 c-0.59,0.93-1.37,1.65-2.35,2.19C85.26,67.71,84.17,67.96,83.01,67.96z M84.07,63.86c0.83,0,1.55-0.21,2.22-0.65 c0.64-0.44,1.16-1.03,1.55-1.78c0.39-0.75,0.57-1.6,0.57-2.55s-0.18-1.81-0.57-2.55c-0.39-0.75-0.9-1.34-1.55-1.78 c-0.65-0.44-1.39-0.65-2.22-0.65c-0.83,0-1.55,0.21-2.22,0.65c-0.64,0.44-1.16,1.03-1.55,1.78c-0.39,0.75-0.57,1.6-0.57,2.55 s0.18,1.81,0.57,2.55c0.39,0.75,0.9,1.34,1.55,1.78C82.52,63.66,83.24,63.86,84.07,63.86z M100.01,45.68 c0,0.49-0.1,0.95-0.34,1.34c-0.23,0.39-0.54,0.7-0.95,0.93c-0.41,0.23-0.85,0.34-1.32,0.34c-0.46,0-0.9-0.1-1.32-0.34 c-0.41-0.23-0.72-0.54-0.95-0.93c-0.23-0.39-0.34-0.83-0.34-1.34c0-0.49,0.1-0.95,0.34-1.34c0.23-0.39,0.54-0.7,0.95-0.93 c0.41-0.23,0.85-0.34,1.32-0.34c0.46,0,0.9,0.1,1.32,0.34c0.41,0.23,0.72,0.54,0.95,0.93C99.91,44.72,100.01,45.16,100.01,45.68z M95.13,67.47V50.32h4.54v17.15H95.13z M111.87,54.81v0.05c-0.23-0.08-0.49-0.15-0.72-0.18c-0.26-0.03-0.52-0.05-0.77-0.05 c-1.26,0-2.22,0.39-2.89,1.16c-0.67,0.77-1.01,1.86-1.01,3.28v8.41h-4.54V50.32h4.2l0.15,2.61c0.44-0.9,1.01-1.6,1.75-2.09 c0.75-0.49,1.6-0.72,2.61-0.72c0.31,0,0.62,0.03,0.9,0.08c0.13,0.03,0.23,0.05,0.34,0.08v4.54H111.87z M113.68,67.47V43.23h4.54 v9.26c0.62-0.83,1.37-1.47,2.3-1.96c0.93-0.46,1.93-0.72,3.04-0.72c1.13,0,2.17,0.23,3.12,0.67c0.95,0.46,1.78,1.08,2.5,1.91 c0.72,0.83,1.26,1.75,1.68,2.84c0.41,1.08,0.59,2.27,0.59,3.53c0,1.29-0.21,2.5-0.62,3.61c-0.41,1.11-0.98,2.06-1.73,2.91 c-0.75,0.83-1.6,1.5-2.61,1.96c-1.01,0.46-2.06,0.7-3.22,0.7c-1.14,0-2.14-0.23-3.04-0.72c-0.9-0.46-1.65-1.16-2.24-2.01 l-0.13,2.24h-4.18V67.47z M122.48,63.86c0.83,0,1.55-0.21,2.22-0.65c0.65-0.44,1.16-1.03,1.55-1.78c0.39-0.75,0.57-1.6,0.57-2.55 s-0.18-1.81-0.57-2.55c-0.39-0.75-0.9-1.34-1.55-1.78c-0.64-0.44-1.39-0.65-2.22-0.65c-0.83,0-1.55,0.21-2.22,0.65 c-0.64,0.44-1.16,1.03-1.55,1.78c-0.39,0.75-0.57,1.6-0.57,2.55s0.18,1.81,0.57,2.55c0.39,0.75,0.9,1.34,1.55,1.78 C120.93,63.66,121.65,63.86,122.48,63.86z M133.26,67.47V50.32h4.2l0.13,2.22c0.49-0.83,1.19-1.47,2.06-1.96 c0.88-0.49,1.88-0.72,3.02-0.72c1.26,0,2.35,0.31,3.3,0.9c0.95,0.59,1.68,1.44,2.19,2.55c0.52,1.11,0.77,2.4,0.77,3.89V67.5h-4.57 v-9.72c0-1.19-0.28-2.14-0.83-2.81c-0.54-0.67-1.29-1.03-2.24-1.03c-0.7,0-1.29,0.15-1.83,0.46c-0.52,0.31-0.93,0.75-1.24,1.32 c-0.31,0.57-0.46,1.21-0.46,1.91v9.85H133.26z M151.16,67.47V43.23h4.54v9.26c0.62-0.83,1.37-1.47,2.3-1.96 c0.93-0.46,1.93-0.72,3.04-0.72c1.14,0,2.17,0.23,3.12,0.67c0.95,0.46,1.78,1.08,2.5,1.91c0.72,0.83,1.26,1.75,1.68,2.84 c0.41,1.08,0.59,2.27,0.59,3.53c0,1.29-0.21,2.5-0.62,3.61c-0.41,1.11-0.98,2.06-1.73,2.91c-0.75,0.83-1.6,1.5-2.61,1.96 c-1.01,0.46-2.06,0.7-3.22,0.7c-1.13,0-2.14-0.23-3.04-0.72c-0.9-0.46-1.65-1.16-2.24-2.01l-0.13,2.24h-4.18V67.47z M159.95,63.86 c0.83,0,1.55-0.21,2.22-0.65c0.64-0.44,1.16-1.03,1.55-1.78c0.39-0.75,0.57-1.6,0.57-2.55s-0.18-1.81-0.57-2.55 c-0.39-0.75-0.9-1.34-1.55-1.78c-0.65-0.44-1.39-0.65-2.22-0.65s-1.55,0.21-2.22,0.65c-0.64,0.44-1.16,1.03-1.55,1.78 c-0.39,0.75-0.57,1.6-0.57,2.55s0.18,1.81,0.57,2.55c0.39,0.75,0.9,1.34,1.55,1.78C158.41,63.66,159.13,63.86,159.95,63.86z"></path> </g> </g> </svg> 