<?xml version="1.0" encoding="UTF-8"?> <!-- Generator: Adobe Illustrator 24.0.3, SVG Export Plug-In . SVG Version: 6.00 Build 0) --> <svg xmlns="http://www.w3.org/2000/svg" xmlns:xlink="http://www.w3.org/1999/xlink" version="1.1" id="Calque_1" x="0px" y="0px" viewBox="0 0 192.6 112.7" style="enable-background:new 0 0 192.6 112.7;" xml:space="preserve"> <style type="text/css"> .st0{fill:#00C7FD;} .st1{fill:#0068B5;} </style> <g> <rect x="45.1" y="35.9" class="st0" width="7.9" height="7.9"></rect> <path class="st1" d="M52.8,76.8V48.5h-7.4v28.2H52.8z M102.1,77.1v-6.9c-1.1,0-2-0.1-2.7-0.2c-0.8-0.1-1.4-0.4-1.7-0.8 c-0.4-0.4-0.7-1-0.8-1.7c-0.1-0.7-0.2-1.6-0.2-2.7v-9.9h5.4v-6.4h-5.4v-11h-7.4v27.3c0,2.3,0.2,4.3,0.6,5.8c0.4,1.5,1.1,2.8,2,3.7 c0.9,0.9,2.1,1.6,3.6,2c1.5,0.4,3.4,0.6,5.7,0.6H102.1z M144.8,76.8V35.3h-7.4v41.4H144.8z M82.1,51.3c-2.1-2.2-5-3.4-8.7-3.4 c-1.8,0-3.4,0.4-4.9,1.1c-1.5,0.7-2.7,1.7-3.7,3l-0.4,0.5l0-0.5v-3.6h-7.3v28.2h7.4v-15l0,1c0-0.2,0-0.3,0-0.5 c0.1-2.6,0.7-4.6,2-5.9c1.3-1.3,2.9-2,4.7-2c2.1,0,3.8,0.7,4.9,2c1.1,1.3,1.6,3.1,1.6,5.4l0,0v0.1c0,0,0,0,0,0h0l0,14.9h7.5v-16 C85.2,56.7,84.2,53.5,82.1,51.3z M133.4,62.6c0-2-0.4-3.9-1.1-5.7c-0.7-1.8-1.7-3.3-3-4.7c-1.3-1.3-2.8-2.4-4.6-3.1 c-1.8-0.7-3.8-1.1-5.9-1.1c-2,0-4,0.4-5.7,1.2c-1.8,0.8-3.4,1.8-4.7,3.1c-1.3,1.3-2.4,2.9-3.1,4.7c-0.8,1.8-1.2,3.7-1.2,5.7 c0,2,0.4,4,1.1,5.7c0.7,1.8,1.8,3.4,3.1,4.7c1.3,1.3,2.9,2.4,4.7,3.1c1.8,0.8,3.9,1.2,6.1,1.2c6.3,0,10.2-2.9,12.6-5.5l-5.4-4.1 c-1.1,1.3-3.8,3.2-7.2,3.2c-2.1,0-3.8-0.5-5.1-1.4c-1.3-1-2.2-2.3-2.7-3.9l-0.1-0.3h22.2V62.6z M111.3,60c0-2.1,2.4-5.7,7.5-5.7 c5.1,0,7.5,3.6,7.5,5.7L111.3,60z"></path> <path class="st1" d="M153.2,73.2c-0.1-0.3-0.3-0.6-0.6-0.9c-0.2-0.2-0.5-0.4-0.9-0.6c-0.3-0.1-0.7-0.2-1.1-0.2 c-0.4,0-0.7,0.1-1.1,0.2c-0.3,0.1-0.6,0.3-0.9,0.6c-0.2,0.2-0.4,0.5-0.6,0.9c-0.1,0.3-0.2,0.7-0.2,1.1c0,0.4,0.1,0.7,0.2,1.1 c0.1,0.3,0.3,0.6,0.6,0.9c0.2,0.2,0.5,0.4,0.9,0.6c0.3,0.1,0.7,0.2,1.1,0.2c0.4,0,0.7-0.1,1.1-0.2c0.3-0.1,0.6-0.3,0.9-0.6 c0.2-0.2,0.4-0.5,0.6-0.9c0.1-0.3,0.2-0.7,0.2-1.1C153.4,73.9,153.4,73.6,153.2,73.2z M152.8,75.2c-0.1,0.3-0.3,0.5-0.5,0.7 c-0.2,0.2-0.4,0.4-0.7,0.5c-0.3,0.1-0.6,0.2-0.9,0.2c-0.3,0-0.6-0.1-0.9-0.2c-0.3-0.1-0.5-0.3-0.7-0.5c-0.2-0.2-0.4-0.4-0.5-0.7 c-0.1-0.3-0.2-0.6-0.2-0.9c0-0.3,0.1-0.6,0.2-0.9c0.1-0.3,0.3-0.5,0.5-0.7c0.2-0.2,0.4-0.4,0.7-0.5c0.3-0.1,0.6-0.2,0.9-0.2 c0.3,0,0.6,0.1,0.9,0.2c0.3,0.1,0.5,0.3,0.7,0.5c0.2,0.2,0.4,0.4,0.5,0.7c0.1,0.3,0.2,0.6,0.2,0.9C153,74.6,152.9,74.9,152.8,75.2z M151.2,74.5c0.2,0,0.4-0.1,0.5-0.2c0.1-0.1,0.2-0.3,0.2-0.6c0-0.3-0.1-0.5-0.3-0.7c-0.2-0.2-0.5-0.2-0.8-0.2h-1.2v3.1h0.6v-1.3 h0.4l0.8,1.3h0.6L151.2,74.5z M150.9,74.1c-0.1,0-0.2,0-0.3,0h-0.4v-0.9h0.4c0.1,0,0.2,0,0.3,0c0.1,0,0.2,0,0.2,0.1 c0.1,0,0.1,0.1,0.2,0.1c0,0.1,0.1,0.1,0.1,0.2c0,0.1,0,0.2-0.1,0.2c0,0.1-0.1,0.1-0.2,0.1C151.1,74,151,74,150.9,74.1z"></path> </g> </svg> 