<?xml version="1.0" encoding="UTF-8"?> <!-- Generator: Adobe Illustrator 24.0.1, SVG Export Plug-In . SVG Version: 6.00 Build 0) --> <svg xmlns="http://www.w3.org/2000/svg" xmlns:xlink="http://www.w3.org/1999/xlink" version="1.1" id="Calque_1" x="0px" y="0px" viewBox="0 0 192.57 112.69" style="enable-background:new 0 0 192.57 112.69;" xml:space="preserve"> <style type="text/css"> .st0{fill:none;} .st1{fill:#0041C0;} </style> <g> <rect x="0.11" y="0.05" class="st0" width="192.34" height="112.56"></rect> <g> <path class="st1" d="M170.93,64.65c-1.23,1.3-2.63,2.07-4.38,2.42c-1.19,0.24-2.22,0.29-3.42,0.17c-1.59-0.16-2.91-0.68-4.19-1.64 c-1.05-0.78-1.8-1.63-2.46-2.76c-0.51-0.88-0.8-1.7-0.97-2.7c-0.23-1.39-0.17-2.61,0.2-3.97c0.83-3.09,3.16-5.27,6.28-5.92 c1.79-0.37,3.37-0.33,5.14,0.12c1.26,0.33,2.26,0.87,3.21,1.76c0.6,0.56,1.03,1.12,1.4,1.84c0.45,0.86,0.63,1.69,0.58,2.65h-5.58 c-0.12-0.75-0.48-1.34-1.08-1.8c-0.78-0.59-1.79-0.64-2.62-0.13c-0.57,0.35-0.95,0.84-1.15,1.48c-0.48,1.52-0.5,2.94-0.07,4.48 c0.18,0.65,0.49,1.16,0.98,1.62c0.56,0.53,1.26,0.75,2.02,0.64c0.47-0.07,0.86-0.28,1.18-0.63c0.33-0.37,0.53-0.77,0.61-1.26 c0.06-0.34,0.09-0.64,0.11-0.99h5.88C172.71,61.81,172.15,63.36,170.93,64.65"></path> <rect x="148.43" y="43.92" class="st1" width="6.1" height="4.31"></rect> <rect x="148.43" y="50.45" class="st1" width="6.1" height="16.32"></rect> <path class="st1" d="M135.79,52.18c0.8-0.7,1.57-1.2,2.54-1.64c1.58-0.73,3.15-0.85,4.82-0.36c1.79,0.52,3.08,1.78,3.64,3.56 c0.27,0.85,0.39,1.61,0.39,2.51v10.54h-6.48V57.3c0-0.32-0.04-0.59-0.13-0.89c-0.17-0.55-0.53-0.95-1.05-1.17 c-1.15-0.49-2.46-0.06-3.09,1.02c-0.26,0.45-0.38,0.89-0.38,1.41v9.1h-6.28V50.45h5.89L135.79,52.18"></path> <path class="st1" d="M63.59,52.18c0.8-0.7,1.57-1.2,2.54-1.64c1.58-0.73,3.15-0.85,4.82-0.36c1.79,0.52,3.08,1.78,3.64,3.56 c0.27,0.85,0.39,1.61,0.39,2.51v10.54H68.5V57.3c0-0.32-0.04-0.59-0.13-0.89c-0.17-0.55-0.53-0.95-1.05-1.17 c-1.15-0.49-2.46-0.06-3.09,1.02c-0.26,0.45-0.38,0.89-0.38,1.41v9.1h-6.28V50.45h5.89L63.59,52.18"></path> <path class="st1" d="M102.06,60.77c0.47,0.08,0.86,0.18,1.31,0.33c0.37,0.12,0.63,0.41,0.71,0.8c0.09,0.42-0.03,0.82-0.33,1.12 c-0.31,0.31-0.65,0.49-1.09,0.56c-0.58,0.09-1.09,0.04-1.63-0.15c-0.27-0.1-0.48-0.22-0.69-0.4c-0.28-0.24-0.46-0.51-0.57-0.86 c-0.09-0.3-0.13-0.56-0.12-0.87h-5.98v0.35c0,0.56,0.09,1.04,0.29,1.56c0.3,0.79,0.71,1.4,1.33,1.98 c0.81,0.75,1.65,1.23,2.72,1.53c2.21,0.63,4.2,0.75,6.47,0.41c1.07-0.16,1.94-0.45,2.9-0.95c0.42-0.22,0.76-0.44,1.13-0.75 c1.62-1.36,2.21-3.42,1.57-5.43c-0.24-0.76-0.63-1.34-1.23-1.86c-0.82-0.71-1.66-1.17-2.7-1.47c-0.23-0.07-0.42-0.12-0.65-0.19 c-1.28-0.36-2.38-0.59-3.69-0.79c-0.35-0.05-0.65-0.11-1-0.19c-0.16-0.04-0.29-0.08-0.44-0.15c-0.37-0.17-0.53-0.6-0.36-0.97 c0.01-0.02,0.02-0.04,0.03-0.06c0.2-0.35,0.49-0.58,0.88-0.7c0.68-0.2,1.31-0.18,1.98,0.05c0.64,0.22,1.05,0.81,1.02,1.49h5.76 c0-0.71-0.11-1.31-0.35-1.97c-0.24-0.67-0.61-1.19-1.18-1.63c-0.49-0.39-0.96-0.65-1.54-0.88c-0.57-0.22-1.07-0.36-1.67-0.46 c-1.43-0.25-2.66-0.32-4.1-0.23c-0.83,0.05-1.52,0.15-2.33,0.34c-1.09,0.26-1.96,0.68-2.84,1.37c-0.75,0.59-1.24,1.27-1.55,2.17 c-0.14,0.41-0.21,0.77-0.23,1.2c-0.03,0.71,0.07,1.33,0.34,1.99c0.47,1.19,1.32,2.04,2.51,2.51c0.61,0.24,1.13,0.4,1.77,0.53 C99.73,60.35,100.8,60.55,102.06,60.77"></path> <path class="st1" d="M30.61,59.74h-4.19v-5.36h2.72c0.52,0,0.96-0.01,1.47-0.04c0.72-0.04,1.31-0.36,1.74-0.94 c0.23-0.31,0.35-0.62,0.41-0.99c0.05-0.32,0.05-0.59,0.02-0.91c-0.12-1.19-1.1-2.09-2.3-2.09h-4.06v17.36h-6.94V43.92h11.34 c0.45,0,0.83,0.01,1.28,0.03c3.01,0.16,5.48,1.83,6.76,4.56c0.66,1.42,0.89,2.79,0.72,4.34c-0.36,3.28-2.65,5.83-5.88,6.54 C32.63,59.64,31.7,59.74,30.61,59.74"></path> <path class="st1" d="M121.65,50.14c-0.65-0.1-1.2-0.14-1.85-0.14c-0.65,0-1.21,0.04-1.85,0.14c-1.87,0.29-3.39,1.05-4.76,2.36 c-1.46,1.41-2.26,3.07-2.45,5.09c-0.11,1.24-0.02,2.31,0.32,3.51c0.51,1.84,1.47,3.27,2.99,4.43c1,0.77,1.99,1.23,3.22,1.5 c0.87,0.19,1.63,0.27,2.53,0.27s1.65-0.08,2.52-0.27c1.23-0.27,2.22-0.73,3.23-1.5l-3.51-3.82c-0.56,1.24-2.01,1.79-3.25,1.23 c-0.57-0.26-0.98-0.66-1.23-1.23c-0.24-0.53-0.38-1-0.46-1.57c-0.17-1.15-0.15-2.14,0.07-3.28c0.12-0.59,0.31-1.07,0.64-1.58 c0.72-1.1,2.2-1.41,3.3-0.69c0.29,0.19,0.5,0.4,0.69,0.69c0.33,0.5,0.53,0.99,0.64,1.58c0.22,1.14,0.25,2.14,0.07,3.28 c-0.09,0.57-0.23,1.05-0.46,1.57l3.51,3.82c1.52-1.16,2.48-2.59,2.99-4.43c0.33-1.2,0.43-2.27,0.32-3.51 c-0.18-2.02-0.98-3.69-2.45-5.09C125.04,51.18,123.52,50.43,121.65,50.14"></path> <path class="st1" d="M93.01,65.49c-0.09-1.35-0.14-2.49-0.17-3.84c-0.04-1.77-0.06-3.27-0.07-5.04c-0.01-0.96-0.11-1.76-0.35-2.69 c-0.31-1.21-1.02-2.14-2.12-2.75c-0.66-0.37-1.27-0.6-2.01-0.76c-2.35-0.51-4.43-0.55-6.8-0.13c-0.67,0.12-1.22,0.28-1.84,0.53 c-1.45,0.6-2.44,1.69-2.9,3.18c-0.18,0.57-0.23,1.09-0.16,1.68c0.01,0.11,0.04,0.2,0.09,0.3l5.49,0.13 c-0.01-0.35,0.03-0.65,0.15-0.97c0.18-0.5,0.53-0.86,1.03-1.04c0.74-0.27,1.45-0.28,2.19-0.04c0.49,0.16,0.84,0.52,0.99,1.01 c0.1,0.31,0.05,0.61-0.14,0.88c-0.16,0.23-0.36,0.39-0.63,0.49c-0.16,0.06-0.3,0.11-0.47,0.15c-0.76,0.21-1.42,0.35-2.19,0.48 c-0.62,0.1-1.14,0.2-1.75,0.32c-0.83,0.17-1.53,0.35-2.33,0.61c-0.74,0.24-1.32,0.58-1.89,1.1c-0.74,0.68-1.16,1.48-1.31,2.48 c-0.09,0.67-0.07,1.24,0.08,1.9c0.38,1.7,1.57,2.96,3.24,3.45c1.86,0.54,3.6,0.45,5.4-0.27c0.87-0.35,1.54-0.84,2.14-1.56 l-0.39-2.81c-0.28,0.43-0.62,0.72-1.09,0.93c-0.44,0.19-0.83,0.3-1.3,0.34c-0.4,0.04-0.74,0.01-1.12-0.09 c-0.31-0.09-0.55-0.23-0.77-0.47c-0.19-0.2-0.3-0.42-0.36-0.68c-0.09-0.41,0.05-0.81,0.37-1.08c0.21-0.18,0.42-0.31,0.69-0.4 c0.64-0.23,1.18-0.41,1.84-0.6c0.79-0.22,1.44-0.46,2.19-0.81c0.07,0.6,0.07,1.11-0.01,1.7c-0.06,0.44-0.19,0.79-0.43,1.16 l0.39,2.81c0.12,0.4,0.23,0.73,0.37,1.12c0.08,0.22,0.18,0.39,0.33,0.56h6.05C93.17,66.37,93.04,65.97,93.01,65.49"></path> <path class="st1" d="M56.36,65.49c-0.09-1.35-0.14-2.49-0.17-3.84c-0.04-1.77-0.06-3.27-0.07-5.04c-0.01-0.96-0.11-1.76-0.35-2.69 c-0.31-1.21-1.02-2.14-2.12-2.75c-0.66-0.37-1.27-0.6-2.01-0.76c-2.35-0.51-4.43-0.55-6.8-0.13c-0.67,0.12-1.22,0.28-1.84,0.53 c-1.45,0.6-2.44,1.69-2.9,3.18c-0.18,0.57-0.23,1.09-0.16,1.68c0.01,0.11,0.04,0.2,0.09,0.3l5.49,0.13 c-0.01-0.35,0.03-0.65,0.15-0.97c0.18-0.5,0.53-0.86,1.03-1.04c0.74-0.27,1.45-0.28,2.19-0.04c0.49,0.16,0.84,0.52,0.99,1.01 c0.1,0.31,0.05,0.61-0.14,0.88c-0.16,0.23-0.36,0.39-0.63,0.49c-0.16,0.06-0.3,0.11-0.47,0.15c-0.76,0.21-1.42,0.35-2.19,0.48 c-0.62,0.1-1.14,0.2-1.75,0.32c-0.83,0.17-1.53,0.35-2.33,0.61c-0.74,0.24-1.32,0.58-1.89,1.1c-0.74,0.68-1.16,1.48-1.31,2.48 c-0.09,0.67-0.07,1.24,0.08,1.9c0.38,1.7,1.57,2.96,3.24,3.45c1.86,0.54,3.6,0.45,5.4-0.27c0.87-0.35,1.54-0.84,2.14-1.56 l-0.39-2.81c-0.28,0.43-0.62,0.72-1.09,0.93c-0.44,0.19-0.83,0.3-1.3,0.34c-0.4,0.04-0.74,0.01-1.12-0.09 c-0.31-0.09-0.55-0.23-0.77-0.47c-0.19-0.2-0.3-0.42-0.36-0.68c-0.09-0.41,0.05-0.81,0.37-1.08c0.22-0.18,0.42-0.31,0.69-0.4 c0.64-0.23,1.18-0.41,1.84-0.6c0.79-0.22,1.44-0.46,2.19-0.81c0.07,0.6,0.07,1.11-0.01,1.7c-0.06,0.44-0.19,0.79-0.43,1.16 l0.39,2.81c0.12,0.4,0.23,0.73,0.37,1.12c0.08,0.22,0.18,0.39,0.33,0.56h6.05C56.53,66.37,56.4,65.97,56.36,65.49"></path> </g> </g> </svg> 