<?xml version="1.0" encoding="UTF-8"?> <!-- Generator: Adobe Illustrator 24.0.1, SVG Export Plug-In . SVG Version: 6.00 Build 0) --> <svg xmlns="http://www.w3.org/2000/svg" xmlns:xlink="http://www.w3.org/1999/xlink" version="1.1" id="Calque_1" x="0px" y="0px" viewBox="0 0 192.57 112.69" style="enable-background:new 0 0 192.57 112.69;" xml:space="preserve"> <style type="text/css"> .st0{fill:none;} .st1{fill:#1428A0;} </style> <g> <rect x="0.11" y="0.15" class="st0" width="192.34" height="112.56"></rect> <path class="st1" d="M25.99,50.57c-0.1-0.43-0.08-0.89-0.02-1.13c0.15-0.68,0.61-1.44,1.96-1.44c1.25,0,1.99,0.78,1.99,1.95 c0,0.4,0,1.33,0,1.33h5.34v-1.51c0-4.66-4.2-5.4-7.23-5.4c-3.81,0-6.92,1.26-7.48,4.76c-0.16,0.96-0.18,1.81,0.04,2.89 c0.93,4.38,8.54,5.65,9.65,8.42c0.21,0.52,0.14,1.18,0.04,1.58c-0.18,0.72-0.66,1.45-2.09,1.45c-1.34,0-2.14-0.78-2.14-1.95 l-0.01-2.06h-5.75v1.64c0,4.79,3.76,6.23,7.79,6.23c3.87,0,7.05-1.32,7.57-4.91c0.26-1.85,0.06-3.05-0.02-3.51 C34.73,54.41,26.6,53.08,25.99,50.57z M95.67,50.63c-0.1-0.42-0.07-0.87-0.02-1.11c0.15-0.69,0.61-1.43,1.94-1.43 c1.24,0,1.96,0.77,1.96,1.93c0,0.39,0,1.31,0,1.31h5.28v-1.49c0-4.62-4.14-5.34-7.14-5.34c-3.77,0-6.86,1.24-7.42,4.72 c-0.15,0.95-0.19,1.78,0.05,2.86c0.92,4.33,8.46,5.59,9.55,8.33c0.19,0.52,0.14,1.18,0.04,1.57c-0.16,0.71-0.64,1.43-2.06,1.43 c-1.33,0-2.14-0.77-2.14-1.92l0-2.06h-5.69v1.63c0,4.74,3.71,6.17,7.71,6.17c3.83,0,6.99-1.31,7.49-4.85 c0.24-1.83,0.06-3.02-0.04-3.47C104.32,54.44,96.28,53.11,95.67,50.63z M144.32,62.3l-5.05-17.25h-7.95v21.2h5.26l-0.31-17.8 l5.42,17.8h7.63v-21.2h-5.29L144.32,62.3z M43.23,45.05l-3.97,21.43h5.79l2.99-19.83l2.92,19.83h5.75l-3.95-21.43H43.23z M75.6,45.05l-2.7,16.75l-2.7-16.75h-8.74l-0.46,21.43h5.36l0.14-19.83l3.68,19.83h5.43l3.69-19.83l0.15,19.83h5.37l-0.48-21.43 H75.6z M125.39,45.05h-5.42V60.9c0.01,0.28,0,0.59-0.05,0.81c-0.11,0.53-0.56,1.56-2.06,1.56c-1.48,0-1.94-1.02-2.04-1.56 c-0.05-0.23-0.06-0.54-0.05-0.81V45.05h-5.42v15.36c-0.01,0.4,0.02,1.2,0.05,1.42c0.37,4,3.53,5.3,7.47,5.3 c3.95,0,7.1-1.3,7.48-5.3c0.03-0.21,0.07-1.02,0.05-1.42V45.05z M162.59,54.45v3.12h2.2v3.1c0.01,0.28-0.01,0.58-0.06,0.81 c-0.09,0.58-0.64,1.56-2.2,1.56c-1.55,0-2.09-0.98-2.18-1.56c-0.04-0.24-0.06-0.54-0.06-0.81v-9.79c0-0.35,0.02-0.73,0.1-1.01 c0.11-0.52,0.57-1.55,2.13-1.55c1.64,0,2.05,1.09,2.14,1.55c0.06,0.31,0.07,0.83,0.07,0.83v1.19h5.4v-0.7c0,0,0.02-0.73-0.04-1.42 c-0.41-4.02-3.72-5.29-7.51-5.29c-3.8,0-7.05,1.28-7.52,5.29c-0.04,0.37-0.11,1.03-0.11,1.42v9.01c0,0.39,0.01,0.7,0.09,1.41 c0.35,3.91,3.74,5.29,7.53,5.29c3.81,0,7.18-1.39,7.53-5.29c0.06-0.72,0.07-1.02,0.08-1.41v-5.74H162.59z"></path> </g> </svg> 