<?xml version="1.0" encoding="UTF-8"?> <!-- Generator: Adobe Illustrator 25.4.1, SVG Export Plug-In . SVG Version: 6.00 Build 0) --> <svg xmlns="http://www.w3.org/2000/svg" xmlns:xlink="http://www.w3.org/1999/xlink" version="1.1" id="Calque_1" x="0px" y="0px" viewBox="0 0 192.6 112.7" style="enable-background:new 0 0 192.6 112.7;" xml:space="preserve"> <style type="text/css"> .st0{fill:none;} .st1{fill:#1434CB;} </style> <g> <rect x="0.1" y="0.1" class="st0" width="192.3" height="112.6"></rect> <path class="st1" d="M76,38.1L61.1,73.7h-9.7L44,45.3c-0.4-1.8-0.8-2.4-2.2-3.1c-2.2-1.2-5.9-2.3-9.1-3l0.2-1h15.7 c2,0,3.8,1.3,4.2,3.6l3.9,20.6l9.6-24.2H76z M114.2,62.1c0-9.4-13-9.9-12.9-14.1c0-1.3,1.2-2.6,3.9-3c1.3-0.2,5-0.3,9.1,1.6 l1.6-7.6c-2.2-0.8-5.1-1.6-8.6-1.6c-9.1,0-15.5,4.8-15.6,11.8c-0.1,5.1,4.6,8,8.1,9.7c3.6,1.7,4.8,2.9,4.8,4.4 c0,2.4-2.9,3.4-5.5,3.5c-4.6,0.1-7.3-1.3-9.5-2.2l-1.7,7.8c2.2,1,6.1,1.8,10.2,1.9C107.8,74.3,114.1,69.5,114.2,62.1 M138.2,73.7 h8.5l-7.4-35.6h-7.9c-1.8,0-3.3,1-3.9,2.6l-13.8,33h9.7l1.9-5.3h11.8L138.2,73.7z M127.9,61.1l4.9-13.4l2.8,13.4H127.9z M89.2,38.1 l-7.6,35.6h-9.2L80,38.1H89.2z"></path> </g> </svg> 